<?xml version="1.0" encoding="UTF-8" standalone="no"?>
<svg
   xmlns:osb="http://www.openswatchbook.org/uri/2009/osb"
   xmlns:dc="http://purl.org/dc/elements/1.1/"
   xmlns:cc="http://creativecommons.org/ns#"
   xmlns:rdf="http://www.w3.org/1999/02/22-rdf-syntax-ns#"
   xmlns:svg="http://www.w3.org/2000/svg"
   xmlns="http://www.w3.org/2000/svg"
   xmlns:sodipodi="http://sodipodi.sourceforge.net/DTD/sodipodi-0.dtd"
   xmlns:inkscape="http://www.inkscape.org/namespaces/inkscape"
   aria-hidden="true"
   focusable="false"
   data-prefix="fas"
   data-icon="male"
   class="svg-inline--fa fa-male fa-w-6"
   role="img"
   viewBox="0 0 276.92679 581.43817"
   version="1.1"
   id="svg4"
   sodipodi:docname="insider.svg"
   width="276.92679"
   height="581.43817"
   inkscape:version="0.92.5 (2060ec1f9f, 2020-04-08)">
  <metadata
     id="metadata10">
    <rdf:RDF>
      <cc:Work
         rdf:about="">
        <dc:format>image/svg+xml</dc:format>
        <dc:type
           rdf:resource="http://purl.org/dc/dcmitype/StillImage" />
      </cc:Work>
    </rdf:RDF>
  </metadata>
  <defs
     id="defs8">
    <linearGradient
       id="linearGradient821"
       osb:paint="solid">
      <stop
         style="stop-color:#000000;stop-opacity:1;"
         offset="0"
         id="stop819" />
    </linearGradient>
  </defs>
  <sodipodi:namedview
     pagecolor="#ffffff"
     bordercolor="#666666"
     borderopacity="1"
     objecttolerance="10"
     gridtolerance="10"
     guidetolerance="10"
     inkscape:pageopacity="0"
     inkscape:pageshadow="2"
     inkscape:window-width="1920"
     inkscape:window-height="1163"
     id="namedview6"
     showgrid="false"
     inkscape:zoom="1.3037281"
     inkscape:cx="232.63739"
     inkscape:cy="328.57064"
     inkscape:window-x="1920"
     inkscape:window-y="0"
     inkscape:window-maximized="1"
     inkscape:current-layer="svg4" />
  <path
     d="m 135.5164,28.387697 c 35.346,0 64,28.654 64,64 0,35.346003 -28.654,64.000003 -64,64.000003 -35.346,0 -64.000001,-28.654 -64.000001,-64.000003 0,-35.346 28.654001,-64 64.000001,-64 m 48,144.000003 h -11.36 c -22.711,10.443 -49.59,10.894 -73.280001,0 h -11.36 c -26.51,0 -48,21.49 -48,48 v 136 c 0,13.255 10.745,24 24,24 h 16 v 136 c 0,13.255 10.745,24 24.000001,24 h 64 c 13.255,0 24,-10.745 24,-24 v -136 h 16 c 13.255,0 24,-10.745 24,-24 v -136 c 0,-26.51 -21.49,-48 -48,-48 z"
     id="path2"
     inkscape:connector-curvature="0"
     style="fill:currentColor" />
  <rect
     style="opacity:1;fill:none;fill-opacity:1;stroke:#000000;stroke-width:10;stroke-miterlimit:4;stroke-dasharray:none"
     id="rect817"
     width="266.92679"
     height="571.43817"
     x="5"
     y="5" />
</svg>
